HIERARCHY
ROOT root
{
	OFFSET 0.000000 0.000000 0.000000
	CHANNELS 6 Xposition Yposition Zposition Zrotation Yrotation Xrotation
	JOINT lhip
	{
		OFFSET 0.058581 -0.082280 -0.017664
		CHANNELS 3 Zrotation Yrotation Xrotation
		JOINT lknee
		{
			OFFSET 0.043451 -0.386469 0.008037
			CHANNELS 3 Zrotation Yrotation Xrotation
			JOINT lankle
			{
				OFFSET -0.014790 -0.426874 -0.037428
				CHANNELS 3 Zrotation Yrotation Xrotation
				JOINT ltoe
				{
					OFFSET 0.041054 -0.060286 0.122042
					CHANNELS 3 Zrotation Yrotation Xrotation
					End Site
					{
						OFFSET 0.000000 0.000000 0.000000
					}
				}
			}
		}
	}
	JOINT rhip
	{
		OFFSET -0.060310 -0.090513 -0.013543
		CHANNELS 3 Zrotation Yrotation Xrotation
		JOINT rknee
		{
			OFFSET -0.043257 -0.383688 -0.004843
			CHANNELS 3 Zrotation Yrotation Xrotation
			JOINT rankle
			{
				OFFSET 0.019056 -0.420046 -0.034562
				CHANNELS 3 Zrotation Yrotation Xrotation
				JOINT rtoe
				{
					OFFSET -0.034840 -0.062106 0.130323
					CHANNELS 3 Zrotation Yrotation Xrotation
					End Site
					{
						OFFSET 0.000000 0.000000 0.000000
					}
				}
			}
		}
	}
	JOINT lowerback
	{
		OFFSET 0.004439 0.124404 -0.038385
		CHANNELS 3 Zrotation Yrotation Xrotation
		JOINT upperback
		{
			OFFSET 0.004488 0.137956 0.026820
			CHANNELS 3 Zrotation Yrotation Xrotation
			JOINT chest
			{
				OFFSET -0.002265 0.056032 0.002855
				CHANNELS 3 Zrotation Yrotation Xrotation
				JOINT lowerneck
				{
					OFFSET -0.013390 0.211636 -0.033468
					CHANNELS 3 Zrotation Yrotation Xrotation
					JOINT upperneck
					{
						OFFSET 0.010113 0.088937 0.050410
						CHANNELS 3 Zrotation Yrotation Xrotation
						End Site
						{
							OFFSET 0.000000 0.000000 0.000000
						}
					}
				}
				JOINT lclavicle
				{
					OFFSET 0.071702 0.114000 -0.018898
					CHANNELS 3 Zrotation Yrotation Xrotation
					JOINT lshoulder
					{
						OFFSET 0.122921 0.045205 -0.019046
						CHANNELS 3 Zrotation Yrotation Xrotation
						JOINT lelbow
						{
							OFFSET 0.255332 -0.015649 -0.022946
							CHANNELS 3 Zrotation Yrotation Xrotation
							JOINT lwrist
							{
								OFFSET 0.265709 0.012698 -0.007375
								CHANNELS 3 Zrotation Yrotation Xrotation
								End Site
								{
									OFFSET 0.000000 0.000000 0.000000
								}
							}
						}
					}
				}
				JOINT rclavicle
				{
					OFFSET -0.082954 0.112472 -0.023707
					CHANNELS 3 Zrotation Yrotation Xrotation
					JOINT rshoulder
					{
						OFFSET -0.113228 0.046853 -0.008472
						CHANNELS 3 Zrotation Yrotation Xrotation
						JOINT relbow
						{
							OFFSET -0.260127 -0.014369 -0.031269
							CHANNELS 3 Zrotation Yrotation Xrotation
							JOINT rwrist
							{
								OFFSET -0.269108 0.006794 -0.006027
								CHANNELS 3 Zrotation Yrotation Xrotation
								End Site
								{
									OFFSET 0.000000 0.000000 0.000000
								}
							}
						}
					}
				}
			}
		}
	}
}
MOTION
Frames: 5
Frame Time: 0.033333
-1.597275 0.526083 0.997789 88.525561 -0.266186 82.249603 -0.264877 -0.787797 -9.715908 -7.601843 -3.618732 49.960568 2.503337 8.036511 -6.815036 0.000000 -0.000000 0.000000 5.188604 -0.364767 -2.232361 -0.020329 4.698828 17.256231 -0.998366 -7.214405 -10.629753 0.000000 -0.000000 0.000000 0.743740 0.988751 15.110828 1.670961 -0.895834 -5.021268 0.042398 -1.403526 2.964435 0.981824 3.407426 -9.997411 -2.860496 0.492213 11.005939 -29.826263 3.852410 -2.464391 -50.881790 -6.767565 9.928587 2.226431 -28.991019 13.219942 -2.087057 0.069072 -0.374521 31.475930 -0.513651 -2.534221 50.352951 4.538996 14.511077 -9.096659 22.317036 -4.646467 6.228395 -0.109554 -5.433347 
-1.560647 0.527095 0.998278 86.980492 -0.872287 82.145567 0.080741 -1.132615 -12.757686 -6.754889 -1.793985 44.067748 2.701986 8.774213 -7.985862 0.000000 -0.000000 0.000000 4.249778 -1.242312 1.157885 0.254446 6.336663 15.617481 -0.889580 -6.349402 -12.084186 0.000000 -0.000000 0.000000 0.751090 2.377230 14.955819 1.347560 -0.879848 -4.667135 -0.192167 -0.762095 2.850142 0.881247 3.584407 -8.613638 -2.860113 0.073608 10.680120 -29.902675 3.706444 -1.770044 -51.278875 -5.251051 9.869025 2.624454 -29.150738 12.585769 -1.621167 0.676499 -1.172821 30.968218 0.255462 -1.245209 50.022576 5.833004 14.438606 -9.642271 25.055637 -4.539765 4.497654 1.168189 -5.039846 
-1.523371 0.528110 0.997373 85.454728 -1.139945 82.063309 0.704338 -0.749776 -14.778768 -5.418416 -0.466248 36.530615 2.057482 9.578592 -8.159971 0.000000 -0.000000 0.000000 3.729937 -1.675733 4.768777 0.094239 8.061869 13.678621 -0.256378 -5.701423 -13.134831 0.000000 -0.000000 0.000000 0.912871 3.358529 15.329915 0.905959 -0.319695 -4.629875 -0.298287 -0.252321 3.068550 1.015658 3.756076 -9.426214 -3.120407 -0.396382 10.678995 -30.344712 4.565060 -2.245156 -51.234915 -4.002030 10.205802 2.484911 -29.939612 12.867707 0.351859 -0.722316 -0.506251 30.450446 0.398159 -1.722159 49.698540 6.715393 14.703670 -9.369074 26.600015 -4.392808 3.404620 1.744007 -4.854380 
-1.477261 0.530098 0.992771 84.684493 -1.149861 82.582149 1.098954 -1.209175 -17.410181 -3.869078 -1.234153 26.413005 1.191518 9.991478 -7.082270 0.000000 -0.000000 0.000000 3.147367 -2.299133 7.650999 0.212216 9.328152 13.481346 -0.823748 -6.145246 -16.636820 0.000000 -0.000000 0.000000 1.494703 4.240262 14.490361 0.584449 -0.423993 -4.068396 -0.654019 0.219499 2.769670 1.252236 4.047119 -8.309121 -3.374974 -1.286549 10.424204 -30.539924 4.695500 -1.968938 -51.334257 -2.755048 10.241519 2.366349 -28.182605 12.444472 -0.964377 -0.224311 -0.697640 29.902279 1.135424 -1.112275 49.274606 7.943571 14.455401 -9.759526 27.662967 -4.729177 3.534947 2.067591 -5.015362 
-1.449836 0.531736 0.989367 84.446152 -1.125322 82.774976 1.195541 -1.234925 -18.273528 -2.812834 -1.825591 19.504390 1.030910 9.761648 -5.504126 0.000000 -0.000000 0.000000 2.805193 -2.607477 9.495016 0.168533 9.887317 12.991195 -0.429261 -6.346395 -17.425946 0.000000 -0.000000 0.000000 1.633841 4.492048 14.689269 0.364389 -0.343976 -3.826565 -0.675603 0.414870 2.825438 1.380540 4.290501 -9.596936 -3.538210 -1.621559 10.256182 -30.665805 5.408200 -2.780716 -51.485862 -2.232588 10.285372 2.046882 -26.709152 12.683820 -1.798708 -0.425033 -1.159479 29.648867 1.097787 -1.925566 49.066796 8.569213 14.731828 -9.685345 28.173314 -4.657603 3.326220 2.424431 -4.931478 
